<?xml version="1.0" encoding="utf-8"?>
<!-- Generator: Adobe Illustrator 25.4.1, SVG Export Plug-In . SVG Version: 6.00 Build 0)  -->
<svg version="1.1" id="Layer_1" xmlns="http://www.w3.org/2000/svg" xmlns:xlink="http://www.w3.org/1999/xlink" x="0px" y="0px"
	 viewBox="0 0 22 18" style="enable-background:new 0 0 22 18;" xml:space="preserve">
<style type="text/css">
	.st0{fill-rule:evenodd;clip-rule:evenodd;fill:#707070;}
	.st1{fill:#707171;}
	.st2{fill:#DFB1B1;}
	.st3{fill:#FFFFFF;}
</style>
<path class="st0" d="M22,2.8v2.5 M22,15.2V6.6"/>
<g>
	<path class="st1" d="M20.1,17.3H1.9c-1.1,0-1.9-0.9-1.9-1.9V2.6c0-1.1,0.9-1.9,1.9-1.9h18.1c1.1,0,1.9,0.9,1.9,1.9v12.8
		C22,16.5,21.1,17.3,20.1,17.3z"/>
	<path class="st2" d="M17.9,12.9h-3.8c-0.6,0-1.1-0.5-1.1-1.1V11c0-0.6,0.5-1.1,1.1-1.1h3.8c0.6,0,1.1,0.5,1.1,1.1v0.8
		C19,12.4,18.5,12.9,17.9,12.9z"/>
	<g>
		<rect y="5.1" class="st3" width="22" height="1.4"/>
	</g>
</g>
</svg>
