<svg width="28" height="28" viewBox="0 0 28 28" fill="none" xmlns="http://www.w3.org/2000/svg">
<rect width="28" height="28" rx="3" fill="#EEF8FA"/>
<path fill-rule="evenodd" clip-rule="evenodd" d="M15.4499 8.95215C14.9477 7.97217 14.4961 6.65234 14.1027 5C13.7152 6.65234 13.2666 7.97217 12.7659 8.95215C12.2622 9.93213 11.4932 10.9941 10.4634 12.1396L10.0193 12.626C8.67211 14.0996 8 15.5776 8 17.0513C8 18.6831 8.60058 20.082 9.80174 21.248C11.0059 22.4141 12.438 23 14.1057 23C15.7777 23 17.2129 22.4141 18.417 21.248C19.6167 20.082 20.2158 18.6831 20.2158 17.0513C20.2158 15.5776 19.5437 14.0996 18.1965 12.626L17.7524 12.1396C16.7211 10.9941 15.9521 9.93213 15.4499 8.95215ZM11.5571 17.7772C11.4341 17.4696 11.0849 17.3199 10.7772 17.443C10.4696 17.566 10.3199 17.9152 10.443 18.2229C10.9126 19.397 11.8467 20.1695 12.7693 20.5539C13.0752 20.6814 13.4265 20.5367 13.5539 20.2308C13.6814 19.925 13.5367 19.5737 13.2308 19.4462C12.5535 19.164 11.8875 18.6031 11.5571 17.7772Z" fill="#9EC2CA"/>
</svg>
