<svg width="28" height="28" viewBox="0 0 28 28" fill="none" xmlns="http://www.w3.org/2000/svg">
<rect width="28" height="28" rx="3" fill="#EEF8FA"/>
<path d="M13.9874 7.15481C13.9874 7.02497 14.0523 6.9004 14.1615 6.83025C16.4226 5.3787 16.8539 8.08541 18.7835 6.99119C19.0838 6.82089 19.5011 7.00812 19.5011 7.35335V10.1094C19.5011 10.2213 19.452 10.3313 19.3671 10.4041C17.2204 12.247 16.542 9.57641 14.6849 10.3415C14.378 10.468 13.9874 10.2774 13.9874 9.94543V7.15481ZM13.3267 5.90479C13.6101 5.90479 13.8377 6.13951 13.8377 6.42731C13.8377 6.61917 13.7359 6.78654 13.5862 6.87839H13.6101V11.3586C13.714 11.4015 13.8058 11.477 13.8697 11.5811C16.2395 15.4494 18.4218 17.2643 20.6665 20.8583C20.9512 21.3142 20.617 21.8947 20.0796 21.8947H8.11709C7.57604 21.8947 7.23954 21.3071 7.51334 20.8405L12.9354 11.5994C12.9634 11.5484 12.9993 11.5015 13.0432 11.4627V6.87839H13.0672C12.9155 6.78654 12.8156 6.61917 12.8156 6.42731C12.8156 6.13951 13.0452 5.90479 13.3267 5.90479Z" fill="#9EC2CA"/>
</svg>
