<svg width="28" height="28" viewBox="0 0 28 28" fill="none" xmlns="http://www.w3.org/2000/svg">
<rect width="28" height="28" rx="3" fill="#EEF8FA"/>
<path d="M17.1658 9.04413C16.7312 8.61518 16.1451 8.37463 15.5344 8.37463H12.4667C11.856 8.37463 11.2699 8.61514 10.8353 9.04413C10.393 9.48057 10.144 10.076 10.144 10.6973V20.9999C10.144 22.0431 10.9897 22.8888 12.0329 22.8888H15.9682C17.0114 22.8888 17.8571 22.0431 17.8571 20.9999V10.6973C17.8571 10.076 17.6081 9.48057 17.1658 9.04413Z" fill="#9EC2CA"/>
<path d="M16.2284 5.33417C16.1237 5.38539 15.922 5.44582 15.5116 5.49358V7.7H12.4877V5.58514C11.9361 5.58514 11.4971 5.65057 11.1922 5.71757C10.9856 5.76299 10.7737 5.56748 10.8252 5.36226C10.8455 5.28139 10.8936 5.19767 10.9696 5.16331C11.141 5.08581 11.6334 4.9747 13.3084 4.9747C14.6905 4.9747 15.5152 4.86661 15.938 4.78603C16.1246 4.75048 16.3184 4.88004 16.3393 5.0688C16.3506 5.17102 16.3208 5.28896 16.2284 5.33417Z" fill="#9EC2CA"/>
</svg>
