<svg width="28" height="28" viewBox="0 0 28 28" fill="none" xmlns="http://www.w3.org/2000/svg">
<rect width="28" height="28" rx="3" fill="#F6EFE9"/>
<path d="M22.1841 13.3583C22.1149 13.2592 20.4657 10.905 18.1899 9.29583C17.0099 8.46 15.5216 8 13.9999 8C12.4791 8 10.9907 8.46 9.80824 9.29583C7.53241 10.905 5.88491 13.2592 5.81574 13.3583C5.61741 13.6442 5.61741 14.0233 5.81574 14.3092C5.88491 14.4083 7.53241 16.7625 9.80824 18.3717C10.9907 19.2067 12.4791 19.6667 13.9999 19.6667C15.5216 19.6667 17.0099 19.2067 18.1899 18.3708C20.4657 16.7617 22.1149 14.4075 22.1841 14.3083C22.3832 14.0233 22.3832 13.6433 22.1841 13.3583ZM13.9999 16.75C12.3882 16.75 11.0832 15.4417 11.0832 13.8333C11.0832 12.2217 12.3882 10.9167 13.9999 10.9167C15.6082 10.9167 16.9166 12.2217 16.9166 13.8333C16.9166 15.4417 15.6082 16.75 13.9999 16.75Z" fill="#D5B8AF"/>
<path d="M15.6666 13.8333C15.6666 14.7516 14.9183 15.5 13.9999 15.5C13.0791 15.5 12.3333 14.7516 12.3333 13.8333C12.3333 12.9125 13.0791 12.1666 13.9999 12.1666C14.9183 12.1666 15.6666 12.9125 15.6666 13.8333Z" fill="#D5B8AF"/>
</svg>
