<svg width="28" height="28" viewBox="0 0 28 28" fill="none" xmlns="http://www.w3.org/2000/svg">
<rect width="28" height="28" rx="3" fill="#FFEEEE"/>
<g clip-path="url(#clip0_132_134)">
<path d="M20.3654 7.63461C18.6664 5.93567 16.4058 5 14 5C11.5942 5 9.33358 5.93567 7.63461 7.63461C5.93567 9.33358 5 11.5942 5 14C5 16.4058 5.93567 18.6664 7.63461 20.3654C9.33358 22.0643 11.5942 23 14 23C16.4058 23 18.6664 22.0643 20.3654 20.3654C22.0643 18.6664 23 16.4058 23 14C23 11.5942 22.0643 9.33358 20.3654 7.63461ZM14 21.8866C9.65131 21.8866 6.1134 18.3487 6.1134 14C6.1134 9.65131 9.65131 6.1134 14 6.1134C18.3487 6.1134 21.8866 9.65131 21.8866 14C21.8866 18.3487 18.3487 21.8866 14 21.8866Z" fill="#E0B2B2"/>
<path d="M18.0356 9.96426C16.9585 8.88708 15.5252 8.29382 13.9999 8.29382C12.4746 8.29382 11.0413 8.88708 9.96414 9.96426C8.88696 11.0414 8.2937 12.4747 8.2937 14C8.2937 15.5253 8.88692 16.9586 9.96414 18.0358C11.0414 19.1129 12.4746 19.7062 13.9999 19.7062C15.5252 19.7062 16.9585 19.1129 18.0356 18.0358C19.1128 16.9586 19.7061 15.5253 19.7061 14C19.7061 12.4747 19.1129 11.0414 18.0356 9.96426ZM13.9999 18.5928C11.4674 18.5928 9.4071 16.5325 9.4071 14C9.4071 11.4675 11.4674 9.40723 13.9999 9.40723C16.5324 9.40723 18.5927 11.4675 18.5927 14C18.5927 16.5325 16.5324 18.5928 13.9999 18.5928Z" fill="#E0B2B2"/>
<path d="M14 11.5876C12.6698 11.5876 11.5876 12.6698 11.5876 14C11.5876 15.3302 12.6698 16.4124 14 16.4124C15.3302 16.4124 16.4124 15.3302 16.4124 14C16.4124 12.6698 15.3302 11.5876 14 11.5876Z" fill="#E0B2B2"/>
</g>
<defs>
<clipPath id="clip0_132_134">
<rect width="18" height="18" fill="white" transform="translate(5 5)"/>
</clipPath>
</defs>
</svg>
