<svg width="28" height="28" viewBox="0 0 28 28" fill="none" xmlns="http://www.w3.org/2000/svg">
<rect width="28" height="28" rx="3" fill="#D5B8AF"/>
<path fill-rule="evenodd" clip-rule="evenodd" d="M14 21.3118C18.9092 21.3118 22.8889 18.1826 22.8889 14.3226C22.8889 10.4625 18.9092 7.33331 14 7.33331C9.09078 7.33331 5.11108 10.4625 5.11108 14.3226C5.11108 15.4457 5.44802 16.507 6.04676 17.4473C6.35751 17.9354 5.85568 19.6523 5.47511 20.7721C5.33857 21.1738 5.72509 21.5788 6.13113 21.4557C7.45419 21.0545 9.66331 20.4468 10.2573 20.6639C11.3948 21.0797 12.6629 21.3118 14 21.3118ZM10.5 11.9999C10.2239 11.9999 10 12.2238 10 12.4999C10 12.7761 10.2239 12.9999 10.5 12.9999H17.5C17.7761 12.9999 18 12.7761 18 12.4999C18 12.2238 17.7761 11.9999 17.5 11.9999H10.5ZM10 14.4999C10 14.2238 10.2239 13.9999 10.5 13.9999H17.5C17.7761 13.9999 18 14.2238 18 14.4999C18 14.7761 17.7761 14.9999 17.5 14.9999H10.5C10.2239 14.9999 10 14.7761 10 14.4999ZM10.5 15.9999C10.2239 15.9999 10 16.2238 10 16.4999C10 16.7761 10.2239 16.9999 10.5 16.9999H13.5C13.7761 16.9999 14 16.7761 14 16.4999C14 16.2238 13.7761 15.9999 13.5 15.9999H10.5Z" fill="white"/>
</svg>
