<svg width="28" height="28" viewBox="0 0 28 28" fill="none" xmlns="http://www.w3.org/2000/svg">
<rect width="28" height="28" rx="3" fill="#FFEEEE"/>
<path d="M15.6941 6.22505C15.6941 5.60986 15.1954 5.11115 14.5802 5.11115H13.4201C12.8048 5.11115 12.3062 5.6099 12.3062 6.22505V7.66482H15.6941L15.6941 6.22505Z" fill="#E0B2B2"/>
<path d="M17.1658 9.04413C16.7312 8.61518 16.1451 8.37463 15.5344 8.37463H12.4667C11.856 8.37463 11.2699 8.61514 10.8353 9.04413C10.393 9.48057 10.144 10.076 10.144 10.6973V20.9999C10.144 22.0431 10.9897 22.8888 12.0329 22.8888H15.9682C17.0114 22.8888 17.8571 22.0431 17.8571 20.9999V10.6973C17.8571 10.076 17.6081 9.48057 17.1658 9.04413Z" fill="#E0B2B2"/>
</svg>
